<svg width="1080" height="1921" viewBox="0 0 1080 1921" fill="none" xmlns="http://www.w3.org/2000/svg">
<g clip-path="url(#clip0_108_121)">
<path d="M1080 0.666626H0V1920.67H1080V0.666626Z" fill="#000719"/>
<g filter="url(#filter0_f_108_121)">
<path d="M307.999 2076.67C708.958 2076.67 1034 1751.63 1034 1350.67C1034 949.708 708.958 624.667 307.999 624.667C-92.9597 624.667 -418.001 949.708 -418.001 1350.67C-418.001 1751.63 -92.9597 2076.67 307.999 2076.67Z" fill="#00CCA7"/>
<path d="M3.99908 2566.67C404.958 2566.67 729.999 2241.63 729.999 1840.67C729.999 1439.71 404.958 1114.67 3.99908 1114.67C-396.96 1114.67 -722.001 1439.71 -722.001 1840.67C-722.001 2241.63 -396.96 2566.67 3.99908 2566.67Z" fill="#5500A5"/>
<path d="M656 1520.67C1056.96 1520.67 1382 1195.63 1382 794.667C1382 393.708 1056.96 68.6667 656 68.6667C255.041 68.6667 -70.0005 393.708 -70.0005 794.667C-70.0005 1195.63 255.041 1520.67 656 1520.67Z" fill="#000719"/>
<path d="M340.046 1162.16C741.005 1162.16 1066.05 837.114 1066.05 436.155C1066.05 35.1963 741.005 -289.845 340.046 -289.845C-60.9123 -289.845 -385.954 35.1963 -385.954 436.155C-385.954 837.114 -60.9123 1162.16 340.046 1162.16Z" fill="#00C996"/>
<path d="M859.953 1625.97C1260.91 1625.97 1585.95 1300.93 1585.95 899.969C1585.95 499.01 1260.91 173.969 859.953 173.969C458.994 173.969 133.953 499.01 133.953 899.969C133.953 1300.93 458.994 1625.97 859.953 1625.97Z" fill="#000719"/>
<path d="M1034.09 1162.16C1435.05 1162.16 1760.09 837.114 1760.09 436.155C1760.09 35.1963 1435.05 -289.845 1034.09 -289.845C633.134 -289.845 308.093 35.1963 308.093 436.155C308.093 837.114 633.134 1162.16 1034.09 1162.16Z" fill="#00718F"/>
</g>
</g>
<defs>
<filter id="filter0_f_108_121" x="-1374" y="-941.845" width="3786.09" height="4160.51" filterUnits="userSpaceOnUse" color-interpolation-filters="sRGB">
<feFlood flood-opacity="0" result="BackgroundImageFix"/>
<feBlend mode="normal" in="SourceGraphic" in2="BackgroundImageFix" result="shape"/>
<feGaussianBlur stdDeviation="326" result="effect1_foregroundBlur_108_121"/>
</filter>
<clipPath id="clip0_108_121">
<rect width="1080" height="1920" fill="white" transform="translate(0 0.666626)"/>
</clipPath>
</defs>
</svg>
